<?xml version="1.0" encoding="utf-8"?>
<!-- Generator: Adobe Illustrator 18.1.1, SVG Export Plug-In . SVG Version: 6.00 Build 0)  -->
<!DOCTYPE svg PUBLIC "-//W3C//DTD SVG 1.1//EN" "http://www.w3.org/Graphics/SVG/1.1/DTD/svg11.dtd">
<svg version="1.1" id="Layer_1" xmlns="http://www.w3.org/2000/svg" xmlns:xlink="http://www.w3.org/1999/xlink" x="0px" y="0px"
	 viewBox="0 0 390.765 62.092" enable-background="new 0 0 390.765 62.092" xml:space="preserve">
<g>
	<path fill="#444342" d="M337.967,50.096V30.208c0-9.384-4.538-13.425-11.436-13.425c-4.103,0-7.147,1.927-9.012,4.663v-3.978
		h-4.662v32.629h4.662V31.016c0-7.147,3.542-10.192,8.079-10.192c5.221,0,7.708,3.169,7.708,10.192v19.081H337.967z"/>
	<g>
		<path fill="#F16722" d="M29.718,42.658c7.145,0,12.938-5.796,12.938-12.94c0-7.145-5.793-12.937-12.938-12.937
			c-7.145,0-12.937,5.792-12.937,12.937C16.781,36.862,22.574,42.658,29.718,42.658"/>
		<path fill="#0DA9A0" d="M50.581,50.58H8.856V8.856h41.725V50.58z M29.718,0C13.305,0,0,13.305,0,29.719
			c0,16.412,13.305,29.719,29.718,29.719c16.412,0,29.72-13.307,29.72-29.719C59.438,13.305,46.13,0,29.718,0"/>
		<path fill="#9FC854" d="M29.718,16.781c7.146,0,12.939,5.792,12.939,12.938c0,7.146-5.793,12.94-12.939,12.94
			c-7.146,0-12.938-5.794-12.938-12.94C16.78,22.573,22.572,16.781,29.718,16.781 M8.716,50.723h42.004V8.717H8.716V50.723z"/>
	</g>
	<polygon fill="#444342" points="269.164,10.863 269.164,2.433 260.588,6.721 260.588,13.218 	"/>
	<rect x="260.588" y="17.467" fill="#444342" width="8.576" height="32.629"/>
	<path fill="#444342" d="M299.122,19.083c-1.116-1.182-3.232-2.3-6.027-2.3c-3.045,0-5.222,1.305-6.713,2.859v-2.174h-8.576v32.629
		h8.576V32.445c0-5.656,2.175-7.085,5.532-7.085c1.926,0,3.604,0.87,4.973,2.113L299.122,19.083z"/>
	<path fill="#444342" d="M305.397,46.804c0-2.176-1.864-4.103-3.978-4.103c-2.175,0-3.979,1.927-3.979,4.103
		c0,2.173,1.804,3.977,3.979,3.977C303.533,50.781,305.397,48.977,305.397,46.804"/>
	<path fill="#444342" d="M252.26,40.09c-2.113,1.803-3.294,2.487-4.849,2.487c-2.05,0-3.169-0.808-3.169-3.917V25.548h7.831v-8.08
		h-7.831V4.788l-8.576,4.289v8.391h-5.47v8.08h5.47V40.96c0,5.718,3.419,9.82,8.701,9.82c2.673,0,5.22-0.87,6.649-1.989
		L252.26,40.09z"/>
	<path fill="#444342" d="M225.092,50.096V31.699c0-9.198-3.729-14.916-12.057-14.916c-3.419,0-6.153,1.305-7.645,2.859v-2.174
		h-8.577v32.629h8.577V32.259c0-5.656,2.052-7.396,5.594-7.396c3.543,0,5.532,1.74,5.532,7.583v17.651H225.092z"/>
	<path fill="#444342" d="M175.558,16.783c-5.284,0-8.454,1.119-12.244,3.294l3.294,5.967c2.983-1.616,5.035-2.175,8.95-2.175
		c3.107,0,4.661,1.865,4.661,4.163v1.616c-1.367-0.684-3.294-1.305-6.277-1.305c-7.396,0-13.239,3.606-13.239,10.814
		c0,7.894,6.091,11.623,12.182,11.623c3.046,0,5.78-1.244,7.334-2.859v2.174h8.577V28.219
		C188.795,20.886,183.451,16.783,175.558,16.783z M180.218,40.524c-0.932,1.555-3.17,2.984-5.966,2.984
		c-3.666,0-4.972-2.05-4.972-4.352c0-2.61,1.74-4.102,4.972-4.102c3.045,0,4.476,0.435,5.966,1.369V40.524z"/>
	<polygon fill="#444342" points="154.238,50.096 154.238,4.788 145.663,9.077 145.663,50.096 	"/>
	<path fill="#444342" d="M124.096,16.783c-5.283,0-8.453,1.119-12.243,3.294l3.294,5.967c2.983-1.616,5.035-2.175,8.95-2.175
		c3.108,0,4.662,1.865,4.662,4.163v1.616c-1.367-0.684-3.294-1.305-6.276-1.305c-7.397,0-13.239,3.606-13.239,10.814
		c0,7.894,6.09,11.623,12.182,11.623c3.046,0,5.781-1.244,7.334-2.859v2.174h8.577V28.219
		C137.335,20.886,131.99,16.783,124.096,16.783z M128.757,40.524c-0.932,1.555-3.169,2.984-5.966,2.984
		c-3.667,0-4.973-2.05-4.973-4.352c0-2.61,1.74-4.102,4.973-4.102c3.045,0,4.475,0.435,5.966,1.369V40.524z"/>
	<path fill="#444342" d="M91.842,16.783c-3.108,0-5.283,1.305-6.899,2.734v-2.05h-8.577v44.625l8.577-4.288v-9.571
		c1.554,1.429,4.04,2.548,6.899,2.548c8.08,0,12.678-6.835,12.678-16.595C104.521,22.004,98.804,16.783,91.842,16.783z
		 M90.724,42.701c-2.487,0-4.475-0.995-5.781-2.797V27.597c1.244-1.616,2.61-2.734,5.283-2.734c3.356,0,5.593,2.797,5.593,9.509
		C95.819,39.843,94.018,42.701,90.724,42.701z"/>
	<path fill="#444342" d="M390.765,21.382v-3.914h-8.079V4.788l-4.661,2.61v10.069h-4.041v3.914h4.041v22.003
		c0,5.407,2.175,7.396,6.215,7.396c2.487,0,4.227-0.374,6.028-1.119l0.31-4.04c-1.491,0.622-2.735,0.933-4.599,0.933
		c-2.486,0-3.294-0.995-3.294-3.916V21.382H390.765z"/>
	<path fill="#444342" d="M370.439,32.818c0-9.322-4.601-16.035-13.113-16.035c-7.77,0-13.489,6.465-13.489,16.843
		c0,12.804,7.272,17.155,13.24,17.155c4.91,0,7.768-1.306,11.685-3.791l-2.177-3.356c-2.982,1.989-5.219,3.108-9.011,3.108
		c-5.346,0-8.639-4.414-9.075-11.375h21.754C370.377,34.622,370.439,33.937,370.439,32.818z M348.499,31.576
		c0.56-7.272,3.916-10.752,8.764-10.752c5.719,0,8.451,4.413,8.826,10.752H348.499z"/>
</g>
</svg>
